<mxfile host="app.diagrams.net" agent="Mozilla/5.0 (Windows NT 10.0; Win64; x64) AppleWebKit/537.36 (KHTML, like Gecko) Chrome/133.0.0.0 Safari/537.36" version="26.0.16">
  <diagram name="Page-1" id="c4acf3e9-155e-7222-9cf6-157b1a14988f">
    <mxGraphModel grid="1" page="1" gridSize="10" guides="1" tooltips="1" connect="1" arrows="1" fold="1" pageScale="1" pageWidth="850" pageHeight="1100" background="none" math="0" shadow="0">
      <root>
        <mxCell id="0" />
        <mxCell id="1" parent="0" />
        <mxCell id="b_mvJeVkepmHWxjtMiGu-5" style="edgeStyle=orthogonalEdgeStyle;rounded=0;orthogonalLoop=1;jettySize=auto;html=1;exitX=1;exitY=0.75;exitDx=0;exitDy=0;entryX=0.5;entryY=1;entryDx=0;entryDy=0;" edge="1" parent="1" source="5d2195bd80daf111-15" target="b_mvJeVkepmHWxjtMiGu-1">
          <mxGeometry relative="1" as="geometry" />
        </mxCell>
        <mxCell id="5d2195bd80daf111-15" value="&lt;p style=&quot;margin:0px;margin-top:4px;text-align:center;&quot;&gt;&lt;br&gt;&lt;b&gt;Appointment&lt;/b&gt;&lt;/p&gt;&lt;hr size=&quot;1&quot;&gt;&lt;p style=&quot;margin:0px;margin-left:4px;&quot;&gt;+ date: float&lt;br&gt;+ time: float&lt;/p&gt;&lt;p style=&quot;margin:0px;margin-left:4px;&quot;&gt;+ treatment type: String&lt;/p&gt;&lt;p style=&quot;margin:0px;margin-left:4px;&quot;&gt;+ physiotherapist name: String&lt;/p&gt;&lt;p style=&quot;margin:0px;margin-left:4px;&quot;&gt;+ patient name: String&lt;/p&gt;&lt;p style=&quot;margin:0px;margin-left:4px;&quot;&gt;+ status: String&lt;/p&gt;&lt;hr size=&quot;1&quot;&gt;&lt;p style=&quot;margin:0px;margin-left:4px;&quot;&gt;+ get Appointment List(patient): Type&lt;br&gt;+ get Appointment List(physiotherapist): Type&lt;/p&gt;&lt;p style=&quot;margin:0px;margin-left:4px;&quot;&gt;+ get All Appointments (): Type&lt;/p&gt;" style="verticalAlign=top;align=left;overflow=fill;fontSize=12;fontFamily=Helvetica;html=1;rounded=0;shadow=0;comic=0;labelBackgroundColor=none;strokeWidth=1" vertex="1" parent="1">
          <mxGeometry x="170" y="270" width="250" height="200" as="geometry" />
        </mxCell>
        <mxCell id="b_mvJeVkepmHWxjtMiGu-6" style="edgeStyle=orthogonalEdgeStyle;rounded=0;orthogonalLoop=1;jettySize=auto;html=1;exitX=0;exitY=0.5;exitDx=0;exitDy=0;entryX=0.25;entryY=0;entryDx=0;entryDy=0;" edge="1" parent="1" source="5d2195bd80daf111-18" target="b_mvJeVkepmHWxjtMiGu-2">
          <mxGeometry relative="1" as="geometry" />
        </mxCell>
        <mxCell id="5d2195bd80daf111-18" value="&lt;p style=&quot;margin:0px;margin-top:4px;text-align:center;&quot;&gt;&lt;br&gt;&lt;b&gt;Physiotherapist&lt;/b&gt;&lt;/p&gt;&lt;hr size=&quot;1&quot;&gt;&lt;p style=&quot;margin:0px;margin-left:4px;&quot;&gt;+ id: int&lt;br&gt;+ name: String&lt;/p&gt;&lt;p style=&quot;margin:0px;margin-left:4px;&quot;&gt;+ expertise: String[]&lt;/p&gt;&lt;hr size=&quot;1&quot;&gt;&lt;p style=&quot;margin:0px;margin-left:4px;&quot;&gt;+ add Expertise(Type): Type&lt;br&gt;+&lt;/p&gt;" style="verticalAlign=top;align=left;overflow=fill;fontSize=12;fontFamily=Helvetica;html=1;rounded=0;shadow=0;comic=0;labelBackgroundColor=none;strokeWidth=1" vertex="1" parent="1">
          <mxGeometry x="80" y="40" width="190" height="150" as="geometry" />
        </mxCell>
        <mxCell id="5d2195bd80daf111-19" value="&lt;p style=&quot;margin:0px;margin-top:4px;text-align:center;&quot;&gt;&lt;br&gt;&lt;b&gt;Patient&lt;/b&gt;&lt;/p&gt;&lt;hr size=&quot;1&quot;&gt;&lt;p style=&quot;margin:0px;margin-left:4px;&quot;&gt;+ id: int&lt;br&gt;+ name: String&lt;/p&gt;&lt;p style=&quot;margin:0px;margin-left:4px;&quot;&gt;+ address: String&lt;/p&gt;&lt;p style=&quot;margin:0px;margin-left:4px;&quot;&gt;+ phone: String&lt;/p&gt;&lt;hr size=&quot;1&quot;&gt;&lt;p style=&quot;margin:0px;margin-left:4px;&quot;&gt;+ book Appointment(): Type&lt;/p&gt;&lt;p style=&quot;margin:0px;margin-left:4px;&quot;&gt;+ cancel Appointment(): Type&lt;/p&gt;&lt;p style=&quot;margin:0px;margin-left:4px;&quot;&gt;+ change Appointment(): Type&lt;br&gt;&lt;br&gt;&lt;/p&gt;" style="verticalAlign=top;align=left;overflow=fill;fontSize=12;fontFamily=Helvetica;html=1;rounded=0;shadow=0;comic=0;labelBackgroundColor=none;strokeWidth=1" vertex="1" parent="1">
          <mxGeometry x="480" y="40" width="190" height="180" as="geometry" />
        </mxCell>
        <mxCell id="b_mvJeVkepmHWxjtMiGu-1" value="report&amp;nbsp;" style="text;html=1;align=center;verticalAlign=middle;whiteSpace=wrap;rounded=0;" vertex="1" parent="1">
          <mxGeometry x="610" y="290" width="110" height="30" as="geometry" />
        </mxCell>
        <mxCell id="b_mvJeVkepmHWxjtMiGu-2" value="timetable ?!?" style="text;html=1;align=center;verticalAlign=middle;whiteSpace=wrap;rounded=0;" vertex="1" parent="1">
          <mxGeometry x="30" y="240" width="110" height="30" as="geometry" />
        </mxCell>
        <mxCell id="b_mvJeVkepmHWxjtMiGu-4" style="edgeStyle=orthogonalEdgeStyle;rounded=0;orthogonalLoop=1;jettySize=auto;html=1;exitX=0.5;exitY=1;exitDx=0;exitDy=0;" edge="1" parent="1" source="5d2195bd80daf111-19" target="5d2195bd80daf111-19">
          <mxGeometry relative="1" as="geometry" />
        </mxCell>
        <mxCell id="b_mvJeVkepmHWxjtMiGu-7" value="book appointment()&lt;div&gt;get physio by name/expertise - returns id, name, expertise&lt;/div&gt;&lt;div&gt;get and choose available datetime&lt;/div&gt;&lt;div&gt;on book - return patient details, physio details, datetime&lt;/div&gt;&lt;div&gt;saves to appointment array list&lt;/div&gt;&lt;div&gt;&lt;br&gt;&lt;/div&gt;&lt;div&gt;cancel appointment()&lt;/div&gt;&lt;div&gt;cancel by datetime&lt;/div&gt;&lt;div&gt;removes from appointment array list&lt;/div&gt;" style="text;html=1;align=center;verticalAlign=middle;whiteSpace=wrap;rounded=0;" vertex="1" parent="1">
          <mxGeometry x="30" y="500" width="360" height="170" as="geometry" />
        </mxCell>
        <mxCell id="b_mvJeVkepmHWxjtMiGu-8" value="that means theres already an array list that has all the available date time, like a diary/calendar&lt;div&gt;&lt;br&gt;&lt;div&gt;basically an array (of datetime, treatment, physiotherapist details and patient details ) inside a general array&lt;/div&gt;&lt;div&gt;&amp;nbsp;&lt;br&gt;&lt;div&gt;the available datetime is already hardcoded in, then when an appointment is to be booked, the arrays that only have datetime&amp;nbsp;&lt;/div&gt;&lt;div&gt;without the other details is called&lt;/div&gt;&lt;/div&gt;&lt;/div&gt;&lt;div&gt;&lt;br&gt;&lt;/div&gt;&lt;div&gt;the booking details are then added to that array list&lt;/div&gt;&lt;div&gt;to cancel appointment - call the array by the datetime used to book and then remove the other details in it&amp;nbsp;&lt;/div&gt;&lt;div&gt;&lt;br&gt;&lt;/div&gt;" style="text;html=1;align=center;verticalAlign=middle;resizable=0;points=[];autosize=1;strokeColor=none;fillColor=none;" vertex="1" parent="1">
          <mxGeometry x="30" y="700" width="690" height="160" as="geometry" />
        </mxCell>
        <mxCell id="b_mvJeVkepmHWxjtMiGu-13" value="array" style="swimlane;fontStyle=0;childLayout=stackLayout;horizontal=1;startSize=30;fillColor=none;horizontalStack=0;resizeParent=1;resizeParentMax=0;resizeLast=0;collapsible=1;marginBottom=0;whiteSpace=wrap;html=1;" vertex="1" parent="1">
          <mxGeometry x="620" y="470" width="210" height="180" as="geometry">
            <mxRectangle x="620" y="470" width="70" height="30" as="alternateBounds" />
          </mxGeometry>
        </mxCell>
        <mxCell id="b_mvJeVkepmHWxjtMiGu-14" value="+ datetime" style="text;strokeColor=none;fillColor=none;align=left;verticalAlign=top;spacingLeft=4;spacingRight=4;overflow=hidden;rotatable=0;points=[[0,0.5],[1,0.5]];portConstraint=eastwest;whiteSpace=wrap;html=1;" vertex="1" parent="b_mvJeVkepmHWxjtMiGu-13">
          <mxGeometry y="30" width="210" height="26" as="geometry" />
        </mxCell>
        <mxCell id="b_mvJeVkepmHWxjtMiGu-15" value="+ physio name" style="text;strokeColor=none;fillColor=none;align=left;verticalAlign=top;spacingLeft=4;spacingRight=4;overflow=hidden;rotatable=0;points=[[0,0.5],[1,0.5]];portConstraint=eastwest;whiteSpace=wrap;html=1;" vertex="1" parent="b_mvJeVkepmHWxjtMiGu-13">
          <mxGeometry y="56" width="210" height="26" as="geometry" />
        </mxCell>
        <mxCell id="b_mvJeVkepmHWxjtMiGu-16" value="+ patient name" style="text;strokeColor=none;fillColor=none;align=left;verticalAlign=top;spacingLeft=4;spacingRight=4;overflow=hidden;rotatable=0;points=[[0,0.5],[1,0.5]];portConstraint=eastwest;whiteSpace=wrap;html=1;" vertex="1" parent="b_mvJeVkepmHWxjtMiGu-13">
          <mxGeometry y="82" width="210" height="28" as="geometry" />
        </mxCell>
        <mxCell id="b_mvJeVkepmHWxjtMiGu-19" value="+ treatment" style="text;strokeColor=none;fillColor=none;align=left;verticalAlign=top;spacingLeft=4;spacingRight=4;overflow=hidden;rotatable=0;points=[[0,0.5],[1,0.5]];portConstraint=eastwest;whiteSpace=wrap;html=1;" vertex="1" parent="b_mvJeVkepmHWxjtMiGu-13">
          <mxGeometry y="110" width="210" height="28" as="geometry" />
        </mxCell>
        <mxCell id="b_mvJeVkepmHWxjtMiGu-20" value="+ status: unbooked, booked, attended, cancelled" style="text;strokeColor=none;fillColor=none;align=left;verticalAlign=top;spacingLeft=4;spacingRight=4;overflow=hidden;rotatable=0;points=[[0,0.5],[1,0.5]];portConstraint=eastwest;whiteSpace=wrap;html=1;" vertex="1" parent="b_mvJeVkepmHWxjtMiGu-13">
          <mxGeometry y="138" width="210" height="42" as="geometry" />
        </mxCell>
        <mxCell id="b_mvJeVkepmHWxjtMiGu-18" value="" style="endArrow=classic;html=1;rounded=0;" edge="1" parent="1">
          <mxGeometry width="50" height="50" relative="1" as="geometry">
            <mxPoint x="660" y="740" as="sourcePoint" />
            <mxPoint x="710" y="650" as="targetPoint" />
            <Array as="points">
              <mxPoint x="710" y="670" />
            </Array>
          </mxGeometry>
        </mxCell>
      </root>
    </mxGraphModel>
  </diagram>
</mxfile>
